<svg width="643" height="514" viewBox="0 0 643 514" fill="none" xmlns="http://www.w3.org/2000/svg">
<path opacity="0.1" d="M184.716 88.153H136.482C133.7 88.153 131.445 90.4088 131.445 93.1913V100.745C131.445 103.528 133.7 105.784 136.482 105.784H184.716C187.498 105.784 189.753 103.528 189.753 100.745V93.1913C189.753 90.4088 187.498 88.153 184.716 88.153Z" fill="#EECF64"/>
<path opacity="0.1" d="M245.736 105.784H197.503C194.721 105.784 192.465 108.039 192.465 110.822V118.376C192.465 121.159 194.721 123.414 197.503 123.414H245.736C248.518 123.414 250.774 121.159 250.774 118.376V110.822C250.774 108.039 248.518 105.784 245.736 105.784Z" fill="#EECF64"/>
<path opacity="0.1" d="M306.757 123.414H258.523C255.741 123.414 253.486 125.67 253.486 128.453V136.007C253.486 138.789 255.741 141.045 258.523 141.045H306.757C309.539 141.045 311.794 138.789 311.794 136.007V128.453C311.794 125.67 309.539 123.414 306.757 123.414Z" fill="#EECF64"/>
<path opacity="0.1" d="M184.716 61.7071H136.482C133.7 61.7071 131.445 63.9628 131.445 66.7454V74.2994C131.445 77.082 133.7 79.3377 136.482 79.3377H184.716C187.498 79.3377 189.753 77.082 189.753 74.2994V66.7454C189.753 63.9628 187.498 61.7071 184.716 61.7071Z" fill="#EECF64"/>
<path opacity="0.1" d="M245.736 79.3377H197.503C194.721 79.3377 192.465 81.5935 192.465 84.376V91.9301C192.465 94.7126 194.721 96.9683 197.503 96.9683H245.736C248.518 96.9683 250.774 94.7126 250.774 91.9301V84.376C250.774 81.5935 248.518 79.3377 245.736 79.3377Z" fill="#EECF64"/>
<path opacity="0.1" d="M306.757 96.9683H258.523C255.741 96.9683 253.486 99.224 253.486 102.007V109.561C253.486 112.343 255.741 114.599 258.523 114.599H306.757C309.539 114.599 311.794 112.343 311.794 109.561V102.007C311.794 99.224 309.539 96.9683 306.757 96.9683Z" fill="#EECF64"/>
<path opacity="0.1" d="M374.557 88.153H326.324C323.542 88.153 321.286 90.4088 321.286 93.1913V100.745C321.286 103.528 323.542 105.784 326.324 105.784H374.557C377.339 105.784 379.595 103.528 379.595 100.745V93.1913C379.595 90.4088 377.339 88.153 374.557 88.153Z" fill="#EECF64"/>
<path opacity="0.1" d="M435.578 105.784H387.344C384.562 105.784 382.307 108.039 382.307 110.822V118.376C382.307 121.159 384.562 123.414 387.344 123.414H435.578C438.36 123.414 440.615 121.159 440.615 118.376V110.822C440.615 108.039 438.36 105.784 435.578 105.784Z" fill="#EECF64"/>
<path opacity="0.1" d="M496.598 123.414H448.365C445.583 123.414 443.327 125.67 443.327 128.453V136.007C443.327 138.789 445.583 141.045 448.365 141.045H496.598C499.38 141.045 501.636 138.789 501.636 136.007V128.453C501.636 125.67 499.38 123.414 496.598 123.414Z" fill="#EECF64"/>
<path opacity="0.1" d="M374.557 61.7071H326.324C323.542 61.7071 321.286 63.9628 321.286 66.7454V74.2994C321.286 77.082 323.542 79.3377 326.324 79.3377H374.557C377.339 79.3377 379.595 77.082 379.595 74.2994V66.7454C379.595 63.9628 377.339 61.7071 374.557 61.7071Z" fill="#EECF64"/>
<path opacity="0.1" d="M435.578 79.3377H387.344C384.562 79.3377 382.307 81.5935 382.307 84.376V91.9301C382.307 94.7126 384.562 96.9683 387.344 96.9683H435.578C438.36 96.9683 440.615 94.7126 440.615 91.9301V84.376C440.615 81.5935 438.36 79.3377 435.578 79.3377Z" fill="#EECF64"/>
<path opacity="0.1" d="M496.598 96.9683H448.365C445.583 96.9683 443.327 99.224 443.327 102.007V109.561C443.327 112.343 445.583 114.599 448.365 114.599H496.598C499.38 114.599 501.636 112.343 501.636 109.561V102.007C501.636 99.224 499.38 96.9683 496.598 96.9683Z" fill="#EECF64"/>
<path opacity="0.1" d="M184.716 26.4459H136.482C133.7 26.4459 131.445 28.7016 131.445 31.4842V39.0382C131.445 41.8208 133.7 44.0765 136.482 44.0765H184.716C187.498 44.0765 189.753 41.8208 189.753 39.0382V31.4842C189.753 28.7016 187.498 26.4459 184.716 26.4459Z" fill="#EECF64"/>
<path opacity="0.1" d="M245.736 44.0765H197.503C194.721 44.0765 192.465 46.3322 192.465 49.1148V56.6688C192.465 59.4514 194.721 61.7071 197.503 61.7071H245.736C248.518 61.7071 250.774 59.4514 250.774 56.6688V49.1148C250.774 46.3322 248.518 44.0765 245.736 44.0765Z" fill="#EECF64"/>
<path opacity="0.1" d="M306.757 61.7071H258.523C255.741 61.7071 253.486 63.9628 253.486 66.7454V74.2994C253.486 77.082 255.741 79.3377 258.523 79.3377H306.757C309.539 79.3377 311.794 77.082 311.794 74.2994V66.7454C311.794 63.9628 309.539 61.7071 306.757 61.7071Z" fill="#EECF64"/>
<path opacity="0.1" d="M184.716 0H136.482C133.7 0 131.445 2.25572 131.445 5.03828V12.5923C131.445 15.3749 133.7 17.6306 136.482 17.6306H184.716C187.498 17.6306 189.753 15.3749 189.753 12.5923V5.03828C189.753 2.25572 187.498 0 184.716 0Z" fill="#EECF64"/>
<path opacity="0.1" d="M245.736 17.6306H197.503C194.721 17.6306 192.465 19.8863 192.465 22.6689V30.2229C192.465 33.0055 194.721 35.2612 197.503 35.2612H245.736C248.518 35.2612 250.774 33.0055 250.774 30.2229V22.6689C250.774 19.8863 248.518 17.6306 245.736 17.6306Z" fill="#EECF64"/>
<path opacity="0.1" d="M306.757 35.2612H258.523C255.741 35.2612 253.486 37.5169 253.486 40.2995V47.8535C253.486 50.6361 255.741 52.8918 258.523 52.8918H306.757C309.539 52.8918 311.794 50.6361 311.794 47.8535V40.2995C311.794 37.5169 309.539 35.2612 306.757 35.2612Z" fill="#EECF64"/>
<path opacity="0.1" d="M374.557 26.4459H326.324C323.542 26.4459 321.286 28.7016 321.286 31.4842V39.0382C321.286 41.8208 323.542 44.0765 326.324 44.0765H374.557C377.339 44.0765 379.595 41.8208 379.595 39.0382V31.4842C379.595 28.7016 377.339 26.4459 374.557 26.4459Z" fill="#EECF64"/>
<path opacity="0.1" d="M435.578 44.0765H387.344C384.562 44.0765 382.307 46.3322 382.307 49.1148V56.6688C382.307 59.4514 384.562 61.7071 387.344 61.7071H435.578C438.36 61.7071 440.615 59.4514 440.615 56.6688V49.1148C440.615 46.3322 438.36 44.0765 435.578 44.0765Z" fill="#EECF64"/>
<path opacity="0.1" d="M496.598 61.7071H448.365C445.583 61.7071 443.327 63.9628 443.327 66.7454V74.2994C443.327 77.082 445.583 79.3377 448.365 79.3377H496.598C499.38 79.3377 501.636 77.082 501.636 74.2994V66.7454C501.636 63.9628 499.38 61.7071 496.598 61.7071Z" fill="#EECF64"/>
<path opacity="0.1" d="M374.557 0H326.324C323.542 0 321.286 2.25572 321.286 5.03828V12.5923C321.286 15.3749 323.542 17.6306 326.324 17.6306H374.557C377.339 17.6306 379.595 15.3749 379.595 12.5923V5.03828C379.595 2.25572 377.339 0 374.557 0Z" fill="#EECF64"/>
<path opacity="0.1" d="M435.578 17.6306H387.344C384.562 17.6306 382.307 19.8863 382.307 22.6689V30.2229C382.307 33.0055 384.562 35.2612 387.344 35.2612H435.578C438.36 35.2612 440.615 33.0055 440.615 30.2229V22.6689C440.615 19.8863 438.36 17.6306 435.578 17.6306Z" fill="#EECF64"/>
<path opacity="0.1" d="M496.598 35.2612H448.365C445.583 35.2612 443.327 37.5169 443.327 40.2995V47.8535C443.327 50.6361 445.583 52.8918 448.365 52.8918H496.598C499.38 52.8918 501.636 50.6361 501.636 47.8535V40.2995C501.636 37.5169 499.38 35.2612 496.598 35.2612Z" fill="#EECF64"/>
<path opacity="0.1" d="M184.716 402.113H136.482C133.7 402.113 131.445 404.369 131.445 407.152V414.706C131.445 417.488 133.7 419.744 136.482 419.744H184.716C187.498 419.744 189.753 417.488 189.753 414.706V407.152C189.753 404.369 187.498 402.113 184.716 402.113Z" fill="#EECF64"/>
<path opacity="0.1" d="M245.736 419.744H197.503C194.721 419.744 192.465 422 192.465 424.782V432.336C192.465 435.119 194.721 437.375 197.503 437.375H245.736C248.518 437.375 250.774 435.119 250.774 432.336V424.782C250.774 422 248.518 419.744 245.736 419.744Z" fill="#EECF64"/>
<path opacity="0.1" d="M306.757 437.375H258.523C255.741 437.375 253.486 439.63 253.486 442.413V449.967C253.486 452.75 255.741 455.005 258.523 455.005H306.757C309.539 455.005 311.794 452.75 311.794 449.967V442.413C311.794 439.63 309.539 437.375 306.757 437.375Z" fill="#EECF64"/>
<path opacity="0.1" d="M184.716 375.668H136.482C133.7 375.668 131.445 377.923 131.445 380.706V388.26C131.445 391.042 133.7 393.298 136.482 393.298H184.716C187.498 393.298 189.753 391.042 189.753 388.26V380.706C189.753 377.923 187.498 375.668 184.716 375.668Z" fill="#EECF64"/>
<path opacity="0.1" d="M245.736 393.298H197.503C194.721 393.298 192.465 395.554 192.465 398.336V405.89C192.465 408.673 194.721 410.929 197.503 410.929H245.736C248.518 410.929 250.774 408.673 250.774 405.89V398.336C250.774 395.554 248.518 393.298 245.736 393.298Z" fill="#EECF64"/>
<path opacity="0.1" d="M306.757 410.929H258.523C255.741 410.929 253.486 413.184 253.486 415.967V423.521C253.486 426.304 255.741 428.559 258.523 428.559H306.757C309.539 428.559 311.794 426.304 311.794 423.521V415.967C311.794 413.184 309.539 410.929 306.757 410.929Z" fill="#EECF64"/>
<path opacity="0.1" d="M374.557 402.113H326.324C323.542 402.113 321.286 404.369 321.286 407.152V414.706C321.286 417.488 323.542 419.744 326.324 419.744H374.557C377.339 419.744 379.595 417.488 379.595 414.706V407.152C379.595 404.369 377.339 402.113 374.557 402.113Z" fill="#EECF64"/>
<path opacity="0.1" d="M435.578 419.744H387.344C384.562 419.744 382.307 422 382.307 424.782V432.336C382.307 435.119 384.562 437.375 387.344 437.375H435.578C438.36 437.375 440.615 435.119 440.615 432.336V424.782C440.615 422 438.36 419.744 435.578 419.744Z" fill="#EECF64"/>
<path opacity="0.1" d="M496.598 437.375H448.365C445.583 437.375 443.327 439.63 443.327 442.413V449.967C443.327 452.75 445.583 455.005 448.365 455.005H496.598C499.38 455.005 501.636 452.75 501.636 449.967V442.413C501.636 439.63 499.38 437.375 496.598 437.375Z" fill="#EECF64"/>
<path opacity="0.1" d="M374.557 375.668H326.324C323.542 375.668 321.286 377.923 321.286 380.706V388.26C321.286 391.042 323.542 393.298 326.324 393.298H374.557C377.339 393.298 379.595 391.042 379.595 388.26V380.706C379.595 377.923 377.339 375.668 374.557 375.668Z" fill="#EECF64"/>
<path opacity="0.1" d="M435.578 393.298H387.344C384.562 393.298 382.307 395.554 382.307 398.336V405.89C382.307 408.673 384.562 410.929 387.344 410.929H435.578C438.36 410.929 440.615 408.673 440.615 405.89V398.336C440.615 395.554 438.36 393.298 435.578 393.298Z" fill="#EECF64"/>
<path opacity="0.1" d="M496.598 410.929H448.365C445.583 410.929 443.327 413.184 443.327 415.967V423.521C443.327 426.304 445.583 428.559 448.365 428.559H496.598C499.38 428.559 501.636 426.304 501.636 423.521V415.967C501.636 413.184 499.38 410.929 496.598 410.929Z" fill="#EECF64"/>
<path opacity="0.1" d="M184.716 340.406H136.482C133.7 340.406 131.445 342.662 131.445 345.445V352.999C131.445 355.781 133.7 358.037 136.482 358.037H184.716C187.498 358.037 189.753 355.781 189.753 352.999V345.445C189.753 342.662 187.498 340.406 184.716 340.406Z" fill="#EECF64"/>
<path opacity="0.1" d="M245.736 358.037H197.503C194.721 358.037 192.465 360.293 192.465 363.075V370.629C192.465 373.412 194.721 375.668 197.503 375.668H245.736C248.518 375.668 250.774 373.412 250.774 370.629V363.075C250.774 360.293 248.518 358.037 245.736 358.037Z" fill="#EECF64"/>
<path opacity="0.1" d="M306.757 375.668H258.523C255.741 375.668 253.486 377.923 253.486 380.706V388.26C253.486 391.042 255.741 393.298 258.523 393.298H306.757C309.539 393.298 311.794 391.042 311.794 388.26V380.706C311.794 377.923 309.539 375.668 306.757 375.668Z" fill="#EECF64"/>
<path opacity="0.1" d="M184.716 313.96H136.482C133.7 313.96 131.445 316.216 131.445 318.999V326.553C131.445 329.335 133.7 331.591 136.482 331.591H184.716C187.498 331.591 189.753 329.335 189.753 326.553V318.999C189.753 316.216 187.498 313.96 184.716 313.96Z" fill="#EECF64"/>
<path opacity="0.1" d="M245.736 331.591H197.503C194.721 331.591 192.465 333.847 192.465 336.629V344.183C192.465 346.966 194.721 349.222 197.503 349.222H245.736C248.518 349.222 250.774 346.966 250.774 344.183V336.629C250.774 333.847 248.518 331.591 245.736 331.591Z" fill="#EECF64"/>
<path opacity="0.1" d="M306.757 349.222H258.523C255.741 349.222 253.486 351.477 253.486 354.26V361.814C253.486 364.597 255.741 366.852 258.523 366.852H306.757C309.539 366.852 311.794 364.597 311.794 361.814V354.26C311.794 351.477 309.539 349.222 306.757 349.222Z" fill="#EECF64"/>
<path opacity="0.1" d="M374.557 340.406H326.324C323.542 340.406 321.286 342.662 321.286 345.445V352.999C321.286 355.781 323.542 358.037 326.324 358.037H374.557C377.339 358.037 379.595 355.781 379.595 352.999V345.445C379.595 342.662 377.339 340.406 374.557 340.406Z" fill="#EECF64"/>
<path opacity="0.1" d="M435.578 358.037H387.344C384.562 358.037 382.307 360.293 382.307 363.075V370.629C382.307 373.412 384.562 375.668 387.344 375.668H435.578C438.36 375.668 440.615 373.412 440.615 370.629V363.075C440.615 360.293 438.36 358.037 435.578 358.037Z" fill="#EECF64"/>
<path opacity="0.1" d="M496.598 375.668H448.365C445.583 375.668 443.327 377.923 443.327 380.706V388.26C443.327 391.042 445.583 393.298 448.365 393.298H496.598C499.38 393.298 501.636 391.042 501.636 388.26V380.706C501.636 377.923 499.38 375.668 496.598 375.668Z" fill="#EECF64"/>
<path opacity="0.1" d="M374.557 313.96H326.324C323.542 313.96 321.286 316.216 321.286 318.999V326.553C321.286 329.335 323.542 331.591 326.324 331.591H374.557C377.339 331.591 379.595 329.335 379.595 326.553V318.999C379.595 316.216 377.339 313.96 374.557 313.96Z" fill="#EECF64"/>
<path opacity="0.1" d="M435.578 331.591H387.344C384.562 331.591 382.307 333.847 382.307 336.629V344.183C382.307 346.966 384.562 349.222 387.344 349.222H435.578C438.36 349.222 440.615 346.966 440.615 344.183V336.629C440.615 333.847 438.36 331.591 435.578 331.591Z" fill="#EECF64"/>
<path opacity="0.1" d="M496.598 349.222H448.365C445.583 349.222 443.327 351.477 443.327 354.26V361.814C443.327 364.597 445.583 366.852 448.365 366.852H496.598C499.38 366.852 501.636 364.597 501.636 361.814V354.26C501.636 351.477 499.38 349.222 496.598 349.222Z" fill="#EECF64"/>
<path opacity="0.1" d="M327.049 514C491.247 514 624.355 503.071 624.355 489.588C624.355 476.106 491.247 465.177 327.049 465.177C162.852 465.177 29.7441 476.106 29.7441 489.588C29.7441 503.071 162.852 514 327.049 514Z" fill="#EECF64"/>
<path d="M143.432 80.0158C152.104 65.7757 166.871 58.9947 166.871 58.9947C166.871 58.9947 167.549 75.2284 158.904 89.4279C150.259 103.627 135.459 110.402 135.459 110.402C135.459 110.402 134.753 94.1746 143.432 80.0158Z" fill="#EECF64"/>
<path d="M79.6859 95.2527C85.8897 117.399 102.989 131.979 102.989 131.979C102.989 131.979 110.033 110.639 103.83 88.4853C97.6259 66.3317 80.5199 51.7594 80.5199 51.7594C80.5199 51.7594 73.4754 73.0992 79.6859 95.2527Z" fill="#46455B"/>
<path d="M569.972 94.2559H85.4829C82.7831 94.2559 80.5945 96.4449 80.5945 99.145V336.873C80.5945 339.574 82.7831 341.762 85.4829 341.762H569.972C572.672 341.762 574.86 339.574 574.86 336.873V99.145C574.86 96.4449 572.672 94.2559 569.972 94.2559Z" fill="#3F3D56"/>
<path opacity="0.1" d="M80.5945 326.844H574.86V336.873C574.86 338.17 574.345 339.414 573.429 340.331C572.512 341.247 571.268 341.763 569.972 341.763H85.4829C84.1864 341.763 82.943 341.247 82.0263 340.331C81.1095 339.414 80.5945 338.17 80.5945 336.873V326.844Z" fill="#545454"/>
<path d="M163.65 308.536H130.428C129.492 308.536 128.733 309.295 128.733 310.231V325.149C128.733 326.085 129.492 326.844 130.428 326.844H163.65C164.586 326.844 165.345 326.085 165.345 325.149V310.231C165.345 309.295 164.586 308.536 163.65 308.536Z" fill="#EECF64"/>
<path d="M199.245 324.132H176.871C176.122 324.132 175.515 324.739 175.515 325.488C175.515 326.237 176.122 326.844 176.871 326.844H199.245C199.994 326.844 200.601 326.237 200.601 325.488C200.601 324.739 199.994 324.132 199.245 324.132Z" fill="#EECF64"/>
<path d="M153.243 142.659C171.135 145.961 189.387 142.659 207.205 140.421L261.357 133.64C263.547 133.362 266.734 132.053 268.022 134.732C268.748 136.23 268.259 139.478 268.314 141.201C268.456 145.948 268.443 150.694 268.314 155.441C268.07 164.514 267.405 173.567 266.558 182.599C264.91 200.277 262.578 217.86 261.412 235.606C260.815 244.638 260.517 253.698 260.781 262.73C260.842 264.886 260.93 267.043 261.059 269.192C261.201 271.6 262.279 275.173 259.656 276.78C258.157 277.702 255.208 277.655 253.493 277.926C250.781 278.353 248.068 278.692 245.302 278.97C227.071 280.795 208.602 280.035 190.302 279.927L135.045 279.642L121.566 279.567C120.346 279.567 115.946 280.3 115.193 278.848C114.874 278.231 115.722 275.343 115.871 274.57C116.079 273.295 116.305 272.022 116.549 270.752C118.122 261.835 119.98 252.972 121.851 244.116C125.872 225.129 129.987 206.048 131.641 186.654C132.462 176.923 131.919 167.104 132.923 157.394C133.391 152.884 133.947 142.821 139.947 142.421C145.032 142.082 150.266 142.421 155.365 142.421C155.635 142.421 155.893 142.314 156.084 142.124C156.275 141.933 156.382 141.674 156.382 141.404C156.382 141.135 156.275 140.876 156.084 140.685C155.893 140.494 155.635 140.387 155.365 140.387C150.551 140.387 145.73 140.258 140.917 140.353C137.716 140.414 135.492 141.174 133.967 144.117C130.068 151.671 130.468 161.747 130.346 169.993C130.055 189.732 127.024 209.052 123.078 228.357C121.092 238.074 118.949 247.757 116.976 257.481C116.047 262.126 115.159 266.785 114.346 271.457C113.966 273.681 112.047 278.584 113.735 280.625C115.424 282.666 120.617 281.568 122.943 281.581L139.12 281.676L170.118 281.852C190.147 281.968 210.243 282.53 230.264 281.941C239.824 281.656 249.926 281.262 259.235 278.977C262.008 278.299 263.344 277.024 263.452 274.068C263.615 269.484 262.869 264.757 262.774 260.153C262.096 220.756 271.351 181.907 270.402 142.496C270.341 139.818 271.351 133.064 268.422 131.443C267.107 130.711 265.398 131.111 264.015 131.273C261.371 131.579 258.734 131.952 256.089 132.263L221.748 136.549C210.771 137.905 199.801 139.37 188.804 140.618C177.163 141.974 165.406 142.781 153.805 140.618C152.524 140.38 151.975 142.34 153.263 142.577L153.243 142.659Z" fill="#EECF64"/>
<path d="M131.655 166.63L267.134 159.984C268.443 159.916 268.45 157.882 267.134 157.95L131.655 164.595C130.353 164.656 130.347 166.691 131.655 166.63Z" fill="#EECF64"/>
<path d="M173.393 149.86C173.014 150.262 172.739 150.75 172.592 151.282C172.444 151.814 172.429 152.374 172.547 152.913C172.666 153.453 172.914 153.955 173.27 154.377C173.627 154.798 174.081 155.126 174.593 155.332C176.417 156.167 178.56 155.468 180.37 155.014C183.082 154.336 185.794 153.732 188.58 153.237C194.645 152.163 200.789 151.592 206.948 151.528C209.755 151.494 212.541 151.623 215.348 151.745C217.382 151.827 219.572 151.989 221.294 150.728C223.26 149.291 223.898 146.483 221.972 144.734C219.26 142.259 213.416 143.696 210.283 143.954C198.917 144.898 187.625 146.584 176.478 148.999C175.203 149.27 175.739 151.237 177.02 150.959C184.375 149.372 191.785 148.097 199.252 147.134C202.923 146.682 206.6 146.3 210.283 145.988C212.019 145.846 213.755 145.717 215.491 145.615C216.169 145.575 216.887 145.5 217.579 145.52C219.728 145.568 219.979 145.181 218.691 147.778C217.545 150.077 217.911 149.813 215.924 149.738C215.084 149.738 214.243 149.643 213.402 149.603C211.68 149.53 209.958 149.492 208.236 149.487C204.57 149.487 200.913 149.664 197.266 150.016C194.174 150.315 191.089 150.735 188.031 151.277C186.119 151.616 184.221 152.01 182.329 152.444C181.495 152.64 180.655 152.844 179.821 153.054C179.421 153.163 179.014 153.257 178.614 153.359C177.131 153.875 175.868 153.196 174.824 151.325C175.732 150.382 174.302 148.938 173.386 149.887L173.393 149.86Z" fill="#EECF64"/>
<path d="M197.95 178.801C188.14 178.422 177.543 181.073 171.081 188.973C166.023 195.15 163.142 205.749 168.498 212.706C174.254 220.166 186.879 218.85 194.493 215.67C202.547 212.279 211.361 205.288 213.782 196.541C216.799 185.616 207.002 177.357 196.798 177.235C195.489 177.235 195.489 179.269 196.798 179.269C202.615 179.337 208.324 181.833 211.036 187.251C213.877 192.96 211.429 198.955 207.646 203.525C201.585 210.801 192.106 216.287 182.451 216.131C176.654 216.043 170.247 214.056 168.45 207.939C166.972 202.983 168.098 197.564 170.674 193.17C176.248 183.677 187.591 180.463 197.991 180.87C199.3 180.917 199.3 178.883 197.991 178.835L197.95 178.801Z" fill="#EECF64"/>
<path d="M188.208 193.869C187.789 193.714 187.339 193.667 186.897 193.733C186.456 193.799 186.039 193.976 185.684 194.247C185.33 194.517 185.049 194.873 184.869 195.282C184.689 195.69 184.616 196.137 184.655 196.581C184.858 199.226 187.774 199.972 189.964 199.816C191.855 199.653 194.066 198.955 193.401 196.588C193.279 196.169 193.068 195.782 192.782 195.452C192.497 195.122 192.144 194.857 191.747 194.676C191.14 194.435 190.482 194.353 189.835 194.438C189.584 194.438 187.285 195.279 188.262 194.269L186.662 194.059C186.839 194.234 186.975 194.447 187.06 194.681C187.144 194.916 187.175 195.167 187.15 195.415C187.153 195.592 187.202 195.766 187.292 195.918C187.382 196.071 187.511 196.197 187.664 196.286C187.818 196.374 187.992 196.42 188.169 196.421C188.346 196.422 188.521 196.377 188.675 196.29C188.908 196.192 189.163 196.162 189.412 196.201C189.661 196.241 189.894 196.349 190.085 196.514C190.276 196.679 190.417 196.894 190.493 197.135C190.568 197.375 190.575 197.632 190.513 197.876C190.458 198.111 190.488 198.358 190.598 198.573C190.707 198.788 190.889 198.957 191.111 199.051C191.333 199.145 191.581 199.158 191.811 199.087C192.042 199.016 192.24 198.866 192.37 198.663C193.048 197.442 193.869 195.015 192.852 193.74C192.174 192.879 190.865 193.137 190.052 193.638C189.55 193.994 189.082 194.396 188.655 194.839C187.835 195.564 187.299 195.903 187.604 194.513C188.113 191.984 190.526 189.97 192.73 188.959L191.238 187.813C190.456 190.753 189.058 193.492 187.136 195.849L188.872 196.568C188.823 195.637 189.062 194.713 189.557 193.923C190.052 193.133 190.779 192.515 191.638 192.153H190.642L191.17 193.021C190.974 194.303 192.933 194.852 193.13 193.557C193.388 191.882 192.33 189.705 190.37 190.526C188.031 191.502 186.818 194.181 186.865 196.568C186.865 197.381 188.018 198.012 188.608 197.293C190.764 194.673 192.338 191.624 193.225 188.349C193.272 188.155 193.262 187.951 193.195 187.762C193.128 187.574 193.008 187.409 192.849 187.287C192.69 187.166 192.5 187.093 192.3 187.078C192.101 187.063 191.902 187.107 191.726 187.203C189.695 188.121 187.979 189.616 186.79 191.502C185.963 192.859 184.926 194.974 185.767 196.534C185.905 196.783 186.09 197.003 186.314 197.18C186.537 197.357 186.793 197.489 187.067 197.566C187.342 197.644 187.629 197.666 187.912 197.632C188.195 197.598 188.468 197.508 188.716 197.368C189.343 196.996 189.916 196.54 190.418 196.012C190.669 195.788 190.947 195.401 191.279 195.334C191.577 195.13 191.564 195.245 191.231 195.693C191.227 196.396 191.022 197.083 190.642 197.673L192.499 198.453C192.667 197.82 192.647 197.152 192.443 196.529C192.239 195.907 191.859 195.357 191.349 194.946C190.839 194.535 190.221 194.281 189.57 194.214C188.919 194.146 188.262 194.269 187.679 194.567L189.211 195.449C189.243 194.586 188.972 193.739 188.445 193.055C188.365 192.923 188.256 192.811 188.127 192.727C187.998 192.642 187.851 192.588 187.699 192.568C187.546 192.548 187.39 192.562 187.244 192.61C187.097 192.658 186.963 192.738 186.852 192.845C185.821 193.923 185.624 195.788 186.919 196.785C187.889 197.524 188.363 196.785 189.428 196.615C193.042 196.147 190.933 197.775 189.658 197.829C189.088 197.89 188.512 197.849 187.957 197.707C186.542 197.228 186.454 196.611 187.692 195.856C188.906 196.351 189.428 194.384 188.235 193.896L188.208 193.869Z" fill="#EECF64"/>
<path d="M186.573 197.585C187.407 200.297 183.963 201.192 182.329 202.128C181.182 202.771 180.183 203.647 179.393 204.698C177.685 206.99 177.047 209.906 176.485 212.652C176.227 213.934 178.187 214.476 178.451 213.195C178.761 211.177 179.338 209.209 180.166 207.343C181.387 204.915 183.136 204.101 185.414 202.854C187.692 201.606 189.34 199.673 188.533 197.042C188.153 195.795 186.187 196.33 186.573 197.585Z" fill="#EECF64"/>
<path d="M189.964 196.222C189.479 196.289 189.036 196.535 188.722 196.911C188.409 197.287 188.247 197.767 188.269 198.256C188.269 199.063 188.804 199.578 189.17 200.223C190.039 201.541 190.702 202.983 191.137 204.501C191.462 205.959 191.781 208.57 191.021 209.926C189.618 212.442 187.082 211.961 184.919 211.961C182.885 211.961 181.312 212.639 181.38 209.804C181.421 208.211 182.533 206.597 183.414 205.342L181.556 205.098C181.948 207.169 182.155 209.27 182.173 211.377C182.173 212.32 183.617 212.842 184.065 211.886C185.155 209.593 186.02 207.199 186.648 204.739L184.648 204.468L185.001 209.621C185.006 209.841 185.083 210.053 185.219 210.226C185.355 210.399 185.543 210.524 185.755 210.582C185.967 210.64 186.192 210.628 186.397 210.547C186.602 210.467 186.776 210.323 186.892 210.136C187.13 209.874 187.304 209.561 187.401 209.221C187.469 208.902 186.845 206.753 186.594 207.519L188.587 207.79L188.73 202.894L186.696 203.166C187.126 204.546 187.255 206.003 187.075 207.438C186.946 208.57 188.852 208.828 189.109 207.709L190.384 201.131L188.526 201.369C188.968 202.278 189.089 203.31 188.872 204.298C188.723 205.6 190.757 205.586 190.906 204.298C191.079 202.948 190.862 201.576 190.282 200.345C190.179 200.175 190.029 200.039 189.85 199.953C189.671 199.867 189.471 199.835 189.274 199.861C189.077 199.887 188.892 199.969 188.741 200.099C188.59 200.228 188.48 200.398 188.425 200.589L187.143 207.166L189.143 207.438C189.347 205.821 189.192 204.18 188.689 202.63C188.621 202.396 188.472 202.195 188.268 202.062C188.064 201.929 187.82 201.874 187.579 201.906C187.338 201.938 187.116 202.055 186.954 202.236C186.792 202.418 186.7 202.651 186.696 202.894L186.553 207.79C186.553 208.977 188.201 209.146 188.553 208.061L188.662 207.729C188.709 207.556 188.71 207.374 188.664 207.2C188.619 207.026 188.53 206.867 188.404 206.739C186.296 204.447 185.868 208.095 185.136 209.106L187.035 209.621L186.682 204.468C186.607 203.369 184.98 203.03 184.682 204.196C184.109 206.49 183.314 208.722 182.309 210.862L184.207 211.377C184.185 209.088 183.959 206.805 183.529 204.556C183.353 203.62 182.126 203.661 181.672 204.312C180.316 206.264 177.97 210.53 179.78 212.869C181.36 214.904 186.329 214.117 188.452 213.988C191.801 213.798 193.015 211.676 193.381 208.516C193.555 207.003 193.47 205.471 193.13 203.986C192.947 203.186 191.096 198.114 190.54 198.215C191.828 197.978 191.279 196.012 189.997 196.249L189.964 196.222Z" fill="#EECF64"/>
<path d="M186.024 200.792L180.472 208.123L182.228 209.146L186.296 203.261L184.438 202.474L182.411 210.211C182.356 210.446 182.386 210.693 182.495 210.908C182.605 211.123 182.787 211.292 183.009 211.386C183.231 211.48 183.479 211.493 183.709 211.422C183.94 211.351 184.138 211.2 184.268 210.998C185.191 209.469 186.227 208.011 187.367 206.638L185.672 205.647C185.217 207.399 184.339 209.013 183.116 210.347L184.818 211.337C184.922 210.4 185.171 209.485 185.557 208.624C186.079 207.451 184.424 206.414 183.801 207.594C183.227 208.668 182.572 209.698 181.841 210.672L183.699 210.916L184.112 208.984L182.255 208.74L182.553 210.435C182.602 210.605 182.694 210.76 182.821 210.884C182.948 211.008 183.105 211.097 183.277 211.143C183.448 211.188 183.629 211.187 183.8 211.142C183.972 211.096 184.128 211.007 184.255 210.882C185.974 209.103 187.353 207.023 188.323 204.746H186.574C187.033 205.594 187.356 206.509 187.53 207.458C187.774 208.679 189.394 208.224 189.523 207.187C189.814 204.915 189.964 202.628 189.97 200.338H187.936V204.603C187.936 205.709 189.747 206.034 189.936 204.874C190.071 203.846 190.41 202.854 190.933 201.959H189.15C189.58 202.652 189.814 203.449 189.828 204.264C189.828 204.534 189.935 204.793 190.126 204.983C190.317 205.174 190.575 205.281 190.845 205.281C191.115 205.281 191.373 205.174 191.564 204.983C191.755 204.793 191.862 204.534 191.862 204.264L192.12 202.908H190.16C190.357 204.108 191.103 210.869 188.452 210.075C188.004 209.967 187.875 209.994 188.065 210.15L188.669 208.862L190.086 205.858L188.187 205.342C188.309 206.739 188.438 208.733 187.597 209.926C186.919 210.896 184.831 211.283 183.767 210.713C183.064 210.212 182.463 209.581 181.997 208.855L180.607 210.211C181.733 211.032 183.556 213.046 185.007 213.161C186.113 213.249 187.041 212.334 187.767 211.601C188.88 210.451 189.747 209.087 190.317 207.591C190.887 206.096 191.147 204.5 191.082 202.901C191.082 202.631 190.975 202.373 190.784 202.182C190.594 201.991 190.335 201.884 190.065 201.884C189.796 201.884 189.537 201.991 189.346 202.182C189.155 202.373 189.048 202.631 189.048 202.901V205.22C189.048 205.49 189.155 205.749 189.346 205.94C189.537 206.13 189.796 206.237 190.065 206.237C190.335 206.237 190.594 206.13 190.784 205.94C190.975 205.749 191.082 205.49 191.082 205.22V199.531C191.082 199.261 190.975 199.003 190.784 198.812C190.594 198.621 190.335 198.514 190.065 198.514C189.796 198.514 189.537 198.621 189.346 198.812C189.155 199.003 189.048 199.261 189.048 199.531C189.045 200.895 188.927 202.256 188.696 203.6L190.696 203.871C190.537 202.251 190.462 200.623 190.472 198.995C190.469 198.752 190.378 198.517 190.217 198.335C190.055 198.152 189.834 198.034 189.592 198.001C189.351 197.968 189.106 198.023 188.901 198.156C188.697 198.288 188.547 198.49 188.479 198.724C188.174 200.019 187.801 201.294 187.441 202.562L189.299 202.318L189.157 201.776C189.062 200.48 187.028 200.474 187.123 201.776C187.145 202.325 187.289 202.862 187.543 203.349C187.936 204.176 189.164 203.884 189.401 203.105C189.787 201.83 190.133 200.555 190.438 199.267L188.438 198.995C188.428 200.623 188.503 202.251 188.662 203.871C188.764 204.915 190.445 205.363 190.655 204.142C190.926 202.611 191.069 201.059 191.082 199.504H189.048V205.193H191.082V202.874H189.048C189.168 205.432 188.279 207.935 186.574 209.845C186.309 210.145 186.024 210.426 185.719 210.686C185.238 211.147 184.797 211.079 184.411 210.476C183.448 210.075 182.451 209.045 181.611 208.441C180.77 207.838 179.617 209.031 180.214 209.831C181.773 211.906 184.099 214.219 186.994 213.222C190.038 212.144 190.452 208.021 190.221 205.308C190.147 204.407 188.797 203.796 188.33 204.8C187.652 206.231 186.974 207.655 186.296 209.092C186.058 209.594 185.618 210.286 185.685 210.882C185.909 212.408 187.76 212.157 188.899 212.069C193.313 211.737 192.615 205.478 192.106 202.332C191.937 201.287 190.418 201.45 190.147 202.332C189.931 202.951 189.819 203.602 189.814 204.257H191.848C191.775 203.091 191.449 201.955 190.892 200.928C190.802 200.776 190.673 200.651 190.519 200.564C190.365 200.476 190.191 200.431 190.014 200.431C189.838 200.431 189.664 200.476 189.51 200.564C189.356 200.651 189.227 200.776 189.136 200.928C188.53 201.975 188.121 203.124 187.93 204.318L189.964 204.59V200.324C189.964 200.055 189.856 199.796 189.666 199.605C189.475 199.414 189.216 199.307 188.947 199.307C188.677 199.307 188.418 199.414 188.227 199.605C188.037 199.796 187.93 200.055 187.93 200.324C187.923 202.614 187.773 204.902 187.482 207.173L189.482 206.902C189.252 205.793 188.862 204.724 188.323 203.728C188.232 203.577 188.103 203.451 187.949 203.364C187.795 203.277 187.622 203.231 187.445 203.231C187.268 203.231 187.094 203.277 186.94 203.364C186.786 203.451 186.658 203.577 186.567 203.728C185.683 205.852 184.411 207.793 182.817 209.452L184.519 209.899L184.221 208.204C184.065 207.302 182.79 207.275 182.363 207.96C182.026 208.47 181.798 209.043 181.691 209.645C181.585 210.247 181.604 210.864 181.746 211.459C181.916 212.422 183.136 212.32 183.604 211.703C184.335 210.731 184.99 209.704 185.563 208.631L183.807 207.6C183.338 208.614 183.019 209.689 182.858 210.794C182.736 211.689 183.801 212.625 184.56 211.784C186.017 210.189 187.073 208.269 187.638 206.183C187.889 205.261 186.614 204.386 185.936 205.193C184.689 206.688 183.556 208.275 182.546 209.94L184.404 210.726L186.472 203.016C186.526 202.782 186.496 202.535 186.387 202.32C186.278 202.105 186.096 201.936 185.874 201.842C185.652 201.748 185.404 201.735 185.173 201.806C184.943 201.877 184.745 202.027 184.614 202.23L180.546 208.123C179.787 209.214 181.529 210.157 182.302 209.146L187.835 201.823C188.621 200.779 186.858 199.789 186.079 200.792H186.024Z" fill="#EECF64"/>
<path d="M272.524 225.265C280.66 220.288 287.128 212.862 294.315 206.651C302.112 199.918 310.296 193.645 318.723 187.705C335.091 176.177 352.278 165.863 369.452 155.577C369.674 155.436 369.834 155.214 369.896 154.958C369.959 154.702 369.919 154.432 369.787 154.205C369.654 153.977 369.438 153.81 369.185 153.738C368.932 153.667 368.66 153.696 368.428 153.82C351.254 164.107 334.06 174.401 317.693 185.949C309.97 191.373 302.431 197.124 295.203 203.227C287.339 209.872 280.335 218.145 271.473 223.509C270.355 224.187 271.378 225.95 272.497 225.265H272.524Z" fill="#EECF64"/>
<path d="M395.711 123.991C386.897 124.886 377.405 127.13 371.981 134.84C367.296 141.472 367.398 153.04 371.798 159.849C376.795 167.586 387.006 167.864 394.938 165.362C402.871 162.859 411.082 158.472 411.007 148.992C410.966 143.906 409.129 138.61 407.102 133.999C405.352 130.019 402.254 126.54 397.562 126.981C396.267 127.103 396.254 129.137 397.562 129.015C403.847 128.432 405.868 135.898 407.359 140.611C408.715 145.012 409.97 150.22 407.841 154.593C405.712 158.967 400.579 161.198 396.193 162.798C391.447 164.521 386.233 165.572 381.276 164.155C371.459 161.408 368.747 148.965 371.574 140.136C374.829 129.965 386.355 126.974 395.745 126.025C397.033 125.896 397.047 123.862 395.745 123.991H395.711Z" fill="#EECF64"/>
<path d="M409.271 202.65C400.457 203.545 390.965 205.79 385.541 213.5C380.856 220.132 380.958 231.7 385.358 238.508C390.355 246.245 400.566 246.523 408.498 244.021C416.431 241.519 424.642 237.132 424.567 227.652C424.526 222.566 422.689 217.27 420.662 212.659C418.912 208.679 415.814 205.2 411.122 205.641C409.827 205.763 409.814 207.797 411.122 207.675C417.407 207.092 419.428 214.558 420.919 219.271C422.275 223.671 423.53 228.879 421.401 233.253C419.272 237.627 414.139 239.858 409.753 241.458C405.007 243.18 399.793 244.231 394.836 242.814C385.019 240.068 382.307 227.625 385.134 218.796C388.389 208.624 399.915 205.634 409.305 204.685C410.593 204.556 410.607 202.521 409.305 202.65H409.271Z" fill="#EECF64"/>
<path d="M382.416 143.798L388.836 151.121C388.963 151.244 389.12 151.332 389.291 151.376C389.462 151.42 389.642 151.419 389.812 151.374C389.983 151.328 390.139 151.239 390.265 151.115C390.391 150.991 390.483 150.837 390.531 150.667C391.887 147.1 391.63 143.405 391.948 139.655C392.3 135.779 393.273 131.985 394.83 128.419C397.958 121.185 403.262 115.105 410.004 111.025C411.122 110.347 410.099 108.584 408.98 109.269C402.332 113.273 396.999 119.132 393.637 126.127C391.991 129.53 390.849 133.155 390.247 136.888C389.569 141.289 390.185 145.9 388.558 150.125L390.26 149.67L383.873 142.36C383.005 141.377 381.575 142.821 382.436 143.798H382.416Z" fill="#EECF64"/>
<path d="M275.799 233.192C310.771 232.125 345.751 231.899 380.741 232.514C382.049 232.514 382.049 230.479 380.741 230.479C345.76 229.856 310.78 230.082 275.799 231.158C274.491 231.198 274.484 233.233 275.799 233.192Z" fill="#EECF64"/>
<path d="M388.05 213.134C400.005 217.826 411.504 223.605 422.404 230.398C423.516 231.076 424.54 229.333 423.428 228.642C412.384 221.765 400.733 215.918 388.619 211.174C387.406 210.692 386.877 212.659 388.084 213.134H388.05Z" fill="#EECF64"/>
<path d="M409.759 203.918C397.636 218.053 390.614 235.852 389.819 254.457C389.765 255.766 391.799 255.766 391.853 254.457C392.623 236.386 399.435 219.096 411.197 205.356C412.044 204.366 410.614 202.922 409.759 203.918Z" fill="#EECF64"/>
<path d="M138.591 225.807L214.372 224.817L223.084 224.702C224.65 224.702 226.216 224.648 227.783 224.641C229.986 224.641 231.471 226.472 231.43 228.71C231.329 233.456 228.345 233.287 224.44 233.456L215.023 233.884L176.675 235.572C169.806 235.877 162.931 236.25 156.063 236.487C149.866 236.677 138.083 234.657 140.835 225.638C141.215 224.383 139.256 223.848 138.869 225.095C137.513 229.53 139.913 234.033 143.778 236.359C149.263 239.654 156.49 238.535 162.545 238.264L209.626 236.128L221.057 235.62C223.986 235.484 228.061 236.081 230.752 234.718C233.912 233.124 234.468 226.797 232.474 224.132C231.451 222.776 230.013 222.654 228.406 222.593C224.189 222.43 219.897 222.708 215.674 222.763L192.201 223.075L138.564 223.753C137.255 223.753 137.255 225.787 138.564 225.787L138.591 225.807Z" fill="#EECF64"/>
<path d="M444.765 475.009C443.056 476.081 441.103 476.684 439.341 477.627C437.578 478.569 435.862 479.987 435.361 481.939C435.174 482.546 435.205 483.198 435.449 483.784C435.888 484.491 436.559 485.023 437.347 485.289C440.928 486.88 444.796 487.723 448.715 487.768C452.633 487.812 456.519 487.056 460.135 485.547C461.408 484.935 462.722 484.414 464.068 483.987C465.726 483.649 467.413 483.477 469.105 483.472C470.884 483.368 472.653 483.141 474.4 482.794C475.279 482.696 476.111 482.35 476.801 481.797C477.429 481.072 477.808 480.164 477.879 479.207C478.681 473.924 477.471 468.532 474.489 464.099C474.113 463.477 473.609 462.943 473.01 462.532C472.281 462.155 471.478 461.94 470.658 461.902C467.268 461.488 463.715 460.728 460.291 460.647C457.837 460.593 456.603 461.759 454.867 463.448C451.28 467.035 449.185 472.249 444.765 475.009Z" fill="#545454"/>
<path d="M494.727 474.507C494.727 477.83 495.127 481.349 497.141 484.001C498.062 485.147 499.177 486.123 500.436 486.883C504.694 489.595 510.335 490.592 514.823 488.293C515.548 487.968 516.168 487.446 516.613 486.788C517.291 485.608 516.932 484.136 516.552 482.835L510.057 460.322C505.86 460.966 499.69 461.42 495.961 463.549C493.256 465.089 494.727 471.537 494.727 474.507Z" fill="#545454"/>
<path d="M440.954 335.883C440.561 337.124 439.137 337.701 438.358 338.745C437.442 339.972 437.537 341.674 437.87 343.166C438.28 345.366 439.313 347.402 440.846 349.032C441.624 349.839 442.584 350.449 443.645 350.81C444.707 351.171 445.839 351.273 446.948 351.107C449.131 350.693 451.016 348.76 451.091 346.543C451.051 345.535 450.836 344.541 450.453 343.607L445.829 330.235C445.81 330.14 445.772 330.051 445.716 329.973C445.659 329.894 445.587 329.829 445.504 329.781C445.329 329.742 445.147 329.773 444.995 329.869C443.904 330.384 441.714 330.926 441.077 332.059C440.439 333.191 441.416 334.656 440.954 335.883Z" fill="#FBB3B2"/>
<path d="M438.792 335.212C440.48 334.948 441.958 333.958 443.538 333.307C445.117 332.656 447.097 332.405 448.426 333.49C448.806 333.802 449.172 334.229 449.667 334.222C448.993 330.906 447.975 327.67 446.629 324.566C446.582 324.417 446.49 324.287 446.365 324.193C446.18 324.118 445.973 324.118 445.789 324.193L441.226 325.386C439.537 325.827 439.341 325.692 439.47 327.353C439.503 328.092 439.883 335.212 438.792 335.212Z" fill="#545454"/>
<path d="M438.29 238.651C437.612 239.695 437.612 240.997 437.612 242.224C437.612 248.225 437.673 254.26 438.561 260.201C438.771 261.625 439.036 263.049 439.171 264.486C439.325 266.487 439.357 268.496 439.266 270.501L438.588 296.608C438.507 299.802 438.344 303.233 436.371 305.742C435.773 306.583 435.492 307.609 435.578 308.637C436.093 315.188 437.178 321.684 438.256 328.16C439.992 327.377 441.888 327.016 443.79 327.107C445.692 327.197 447.545 327.737 449.199 328.682C452.62 317.924 454.512 306.739 454.82 295.455C454.975 289.901 454.738 284.314 455.592 278.828C457.023 269.592 456.44 260.119 455.389 250.829C455.057 247.886 454.352 244.855 452.467 242.577C450.683 240.583 448.306 239.214 445.687 238.671C443.178 238.013 440.934 238.691 438.29 238.651Z" fill="#5B5583"/>
<path opacity="0.1" d="M438.29 238.651C437.612 239.695 437.612 240.997 437.612 242.224C437.612 248.225 437.673 254.26 438.561 260.201C438.771 261.625 439.036 263.049 439.171 264.486C439.325 266.487 439.357 268.496 439.266 270.501L438.588 296.608C438.507 299.802 438.344 303.233 436.371 305.742C435.773 306.583 435.492 307.609 435.578 308.637C436.093 315.188 437.178 321.684 438.256 328.16C439.992 327.377 441.888 327.016 443.79 327.107C445.692 327.197 447.545 327.737 449.199 328.682C452.62 317.924 454.512 306.739 454.82 295.455C454.975 289.901 454.738 284.314 455.592 278.828C457.023 269.592 456.44 260.119 455.389 250.829C455.057 247.886 454.352 244.855 452.467 242.577C450.683 240.583 448.306 239.214 445.687 238.671C443.178 238.013 440.934 238.691 438.29 238.651Z" fill="#545454"/>
<path d="M446.575 314.361C442.028 337.666 444.51 361.798 453.708 383.69C454.502 385.31 455.059 387.037 455.362 388.816C455.735 392.139 454.202 395.332 453.328 398.547C451.294 405.857 452.467 413.641 453.769 421.121C454.311 424.24 454.869 427.357 455.443 430.472C456.006 433.51 456.548 436.812 455.138 439.565C456.352 444.624 457.07 449.635 458.284 454.693C458.413 455.094 458.452 455.517 458.399 455.934C458.155 456.596 457.724 457.173 457.159 457.596C456.254 458.513 455.604 459.65 455.272 460.895C454.941 462.14 454.939 463.45 455.267 464.695C458.365 462.471 462.684 463.251 466.224 464.695C469.763 466.14 473.248 468.086 477.072 468.086C476.516 463.597 475.98 458.884 477.634 454.673C478.597 452.232 480.292 449.926 480.245 447.316C480.197 444.976 478.767 442.888 478.421 440.575C478.292 439.137 478.347 437.687 478.584 436.263C479.492 427.963 478.462 419.581 477.431 411.295C477.314 409.661 476.93 408.057 476.292 406.548C475.811 405.572 475.092 404.636 475.105 403.544C475.105 402.276 476.129 401.246 476.509 400.038C477.187 397.814 475.939 394.79 477.817 393.413C482.767 389.779 480.868 381.099 480.76 374.962C480.674 369.669 480.448 364.379 480.082 359.095C483.198 367.858 484.472 377.171 483.825 386.449C483.608 389.487 483.208 392.681 484.394 395.488C485.303 397.645 487.106 399.421 487.594 401.707C487.899 403.117 487.682 404.575 487.75 406.013C487.818 407.45 488.306 409.017 489.547 409.742C489.642 416.279 490.225 423.27 490.327 429.807C490.261 433.149 490.533 436.488 491.14 439.775C491.445 440.821 491.613 441.901 491.642 442.989C491.489 444.354 491.128 445.687 490.571 446.943C489.389 450.442 489.08 454.177 489.671 457.823C490.262 461.469 491.734 464.915 493.961 467.862C495.561 465.021 498.897 463.515 502.151 463.278C505.405 463.041 508.619 463.861 511.772 464.689C511.29 460.727 512.078 456.714 514.023 453.229C514.544 452.443 514.944 451.584 515.209 450.679C515.576 448.957 514.721 447.241 514.26 445.539C513.508 442.827 513.772 439.904 513.948 437.07C514.54 427.577 514.119 418.048 512.694 408.644C512.474 406.791 512.039 404.971 511.399 403.219C511.155 402.595 510.857 401.998 510.653 401.368C510.333 400.236 510.151 399.071 510.111 397.896L509.331 387.046C508.782 379.445 511.277 371.938 513.019 364.52C513.799 361.197 514.647 357.881 515.169 354.504C515.881 349.907 515.996 345.207 517.04 340.671C517.976 336.602 519.664 332.635 520.016 328.465C520.559 322.003 517.874 315.757 515.27 309.831C514.186 307.39 510.084 307.634 507.446 307.2C488.74 304.128 469.037 304.108 451.396 311.031C449.571 311.787 447.928 312.922 446.575 314.361Z" fill="#545454"/>
<path d="M460.061 194.004L462.135 202.074C462.699 203.925 463.012 205.843 463.064 207.777C463.085 208.482 462.929 209.182 462.61 209.811C462.268 210.328 461.831 210.774 461.322 211.126C459.905 212.205 458.921 214.72 457.301 215.466C458.135 216.917 459.288 215.975 460.793 216.7C463.444 217.989 465.871 219.84 468.746 220.478C471.458 221.074 474.305 220.511 476.997 219.799C480.814 218.762 484.611 217.331 487.682 214.829C490.754 212.327 492.503 210.116 492.49 206.163C489.099 206.563 486.082 203.138 484.584 200.06C484.064 198.89 483.682 197.663 483.445 196.405L481.628 188.41C479.648 188.844 478.034 190.261 476.143 191C474.251 191.74 472.014 191.807 469.912 191.902C466.181 192.072 462.471 192.553 458.82 193.34C458.318 193.442 457.687 193.76 457.81 194.249" fill="#FBB3B2"/>
<path opacity="0.1" d="M460.061 194.004L462.135 202.074C462.699 203.925 463.012 205.843 463.064 207.777C463.085 208.482 462.929 209.182 462.61 209.811C462.268 210.328 461.831 210.774 461.322 211.126C459.905 212.205 458.921 214.72 457.301 215.466C458.135 216.917 459.288 215.975 460.793 216.7C463.444 217.989 465.871 219.84 468.746 220.478C471.458 221.074 474.305 220.511 476.997 219.799C480.814 218.762 484.611 217.331 487.682 214.829C490.754 212.327 492.503 210.116 492.49 206.163C489.099 206.563 486.082 203.138 484.584 200.06C484.064 198.89 483.682 197.663 483.445 196.405L481.628 188.41C479.648 188.844 478.034 190.261 476.143 191C474.251 191.74 472.014 191.807 469.912 191.902C466.181 192.072 462.471 192.553 458.82 193.34C458.318 193.442 457.687 193.76 457.81 194.249" fill="#545454"/>
<path d="M468.97 198.453C478.885 198.453 486.923 190.414 486.923 180.497C486.923 170.58 478.885 162.541 468.97 162.541C459.054 162.541 451.016 170.58 451.016 180.497C451.016 190.414 459.054 198.453 468.97 198.453Z" fill="#FBB3B2"/>
<path d="M473.912 210.096C474.872 208.022 476.258 206.174 477.98 204.671C480.509 202.454 483.967 200.657 484.564 197.348L490.042 203.728C490.34 204.024 490.571 204.38 490.72 204.773C490.789 205.141 490.779 205.519 490.69 205.883C490.601 206.246 490.436 206.587 490.205 206.882C488.849 209.045 486.713 210.591 484.692 212.157C480.061 215.826 475.628 219.737 471.41 223.875C471.224 224.091 470.975 224.242 470.698 224.309C470.436 224.316 470.178 224.243 469.959 224.099C466.32 222.188 463.1 219.569 460.488 216.395C460.291 216.158 460.047 215.887 459.728 215.907C459.536 215.942 459.359 216.035 459.22 216.172C457.396 217.663 455.403 219.447 453.063 219.216C456.094 217.04 457.81 213.405 458.447 209.723C458.573 208.463 458.832 207.219 459.22 206.014C459.421 205.41 459.767 204.866 460.228 204.428C460.689 203.991 461.251 203.674 461.864 203.505C460.386 205.763 461.396 208.963 463.383 210.787C465.313 212.426 467.627 213.548 470.109 214.049C472.414 214.483 473.092 211.872 473.912 210.096Z" fill="#545454"/>
<path d="M450.555 316.205C453.111 316.836 455.531 317.907 458.013 318.7C462.536 320.117 467.295 320.617 472.014 320.172C473.466 320.14 474.878 319.69 476.082 318.877C476.4 318.619 476.692 318.314 477.031 318.077C477.598 317.736 478.213 317.482 478.855 317.324C485.072 315.378 490.279 311.18 495.33 307.071C495.493 306.935 495.676 306.766 495.663 306.549C495.639 306.401 495.568 306.265 495.459 306.162L492.801 303.111C485.832 304.298 478.692 303.85 471.621 303.674C470.169 303.609 468.714 303.648 467.268 303.789C465.871 303.952 464.495 304.304 463.118 304.603C457.891 305.742 452.548 306.176 447.253 306.922C446.883 306.949 446.523 307.06 446.202 307.247C445.979 307.42 445.788 307.631 445.639 307.871L443.782 310.482C443.061 311.36 442.53 312.378 442.222 313.472C441.788 315.507 442.697 316.185 444.426 315.92C446.468 315.621 448.549 315.718 450.555 316.205Z" fill="#545454"/>
<path d="M471.336 220.769C469.262 218.643 466.91 216.807 464.345 215.31C463.309 214.652 462.16 214.192 460.955 213.954C460.35 213.835 459.725 213.849 459.125 213.997C458.525 214.144 457.965 214.421 457.484 214.809C456.881 215.344 456.501 216.09 455.918 216.653C455.184 217.27 454.343 217.745 453.436 218.057C450.35 219.376 447.425 221.043 444.717 223.027C443.241 224.06 441.912 225.287 440.764 226.675C437.693 230.608 437.232 235.958 437.313 240.949C437.374 244.421 440.703 246.998 442.995 249.595C445.144 252.151 447.09 254.872 448.812 257.732C450.046 259.685 451.335 261.801 451.179 264.127C451.05 266.032 449.938 267.822 450.114 269.721C450.175 270.399 450.392 271.023 450.453 271.681C450.575 273.037 450.04 274.393 449.904 275.749C449.721 277.668 450.345 279.574 450.379 281.507C450.354 282.83 450.185 284.146 449.877 285.433C448.575 291.631 446.941 297.862 447.273 304.189L443.517 304.867C443.873 305.216 444.142 305.643 444.301 306.115C444.461 306.587 444.508 307.09 444.437 307.584C444.366 308.077 444.181 308.546 443.895 308.955C443.609 309.363 443.231 309.698 442.792 309.932C448.656 311.892 454.996 310.902 461.213 310.895C466.359 310.895 471.485 311.573 476.624 311.479C481.763 311.384 487.065 310.455 491.303 307.546C492.456 306.759 493.513 305.837 494.727 305.152C496.352 304.309 498.104 303.737 499.914 303.457C503.265 302.817 506.672 302.513 510.084 302.548C511.752 302.548 513.569 302.616 514.898 301.612C516.362 300.5 516.735 298.486 516.932 296.662C517.128 294.736 517.25 292.804 517.284 290.871C517.341 289.366 517.262 287.859 517.047 286.368C516.843 285.278 516.578 284.201 516.254 283.141L513.697 274.136C512.64 270.42 514.111 266.344 514.423 262.493C514.498 261.584 514.511 260.526 513.813 259.943C513.562 259.733 513.216 259.59 513.135 259.265C513.098 259.11 513.094 258.95 513.122 258.794C513.15 258.637 513.21 258.488 513.297 258.356C514.653 255.644 516.687 253.25 518.545 250.802C521.665 246.508 524.562 242.056 527.224 237.464C526.39 227.854 522.344 218.805 515.738 211.777C514.382 210.306 512.83 208.896 510.931 208.231C509.691 207.852 508.404 207.644 507.107 207.614C501.792 207.255 496.259 206.936 491.628 204.264C491.296 204.034 490.92 203.875 490.523 203.796C489.499 203.681 488.754 204.691 488.089 205.491C486.381 207.526 483.865 208.692 481.655 210.191C477.533 212.991 474.312 216.843 471.336 220.769Z" fill="#5B5583"/>
<path d="M527.685 240.237C528.743 243.587 528.641 247.167 528.987 250.66C529.191 252.767 529.561 254.855 530.092 256.905C530.334 258.032 530.77 259.108 531.38 260.085C531.99 260.98 532.865 261.706 533.251 262.716C533.463 263.401 533.557 264.116 533.529 264.832L533.611 269.511C533.785 271.99 533.407 274.478 532.505 276.794L529.583 285.684C528.004 290.498 526.383 295.387 523.535 299.578C523.134 300.287 522.526 300.857 521.793 301.212C521.219 301.364 520.63 301.455 520.037 301.483C519.003 301.668 518.066 302.207 517.387 303.007C516.708 303.808 516.328 304.821 516.315 305.871C515.636 304.879 514.79 304.014 513.813 303.314L507.867 298.567C505.833 296.913 503.711 295.231 501.243 294.275C504.562 293.238 507.509 291.26 509.726 288.581C511.943 285.901 513.334 282.636 513.732 279.181C513.729 278.152 513.961 277.136 514.41 276.211C514.905 275.41 515.82 274.8 515.888 273.858C515.969 272.671 514.626 271.776 514.626 270.589C514.626 269.802 515.21 269.151 515.467 268.412C515.708 267.499 515.708 266.539 515.467 265.625L514.647 261.069C514.598 260.612 514.46 260.169 514.24 259.767C513.933 259.38 513.593 259.022 513.223 258.695C511.813 257.115 512.437 254.627 513.223 252.68C515.029 248.361 517.356 244.278 520.152 240.522C521.148 239.261 522.069 237.943 522.912 236.576C523.63 235.328 523.793 233.599 524.552 232.507C525.529 235.07 526.851 237.599 527.685 240.237Z" fill="#5B5583"/>
<path d="M501.032 294.553C500.73 294.778 500.468 295.053 500.259 295.367C499.461 296.37 498.396 297.129 497.188 297.557C497.866 298.045 498.483 298.527 499.12 299.022C503.836 302.664 508.154 306.794 512.002 311.343C512.43 309.817 514.986 309.926 515.609 308.468C515.756 308.05 515.803 307.604 515.745 307.166C515.615 304.882 515.289 302.613 514.769 300.385C514.563 299.238 514.1 298.152 513.413 297.211C512.463 296.065 510.985 295.516 509.575 295.041C507.439 294.295 503.202 293.244 501.032 294.553Z" fill="#545454"/>
<path d="M492.557 299.883C490.523 301.388 488.74 303.273 486.455 304.304C484.842 305.037 483.004 305.355 481.594 306.447C482.36 308.135 484.353 309.01 486.204 308.942C488.057 308.76 489.833 308.109 491.364 307.05C492.578 306.305 494.002 305.437 495.324 305.959C495.527 306.989 494.646 307.959 494.646 309.003C494.646 310.048 495.513 310.807 496.368 311.356C500.436 313.981 505.67 313.764 510.518 313.459C510.796 313.469 511.07 313.388 511.297 313.228C511.403 313.105 511.482 312.963 511.532 312.809C511.582 312.656 511.602 312.494 511.589 312.333C511.65 311.261 511.677 310.197 511.684 309.125C511.821 308.262 511.709 307.377 511.36 306.574C511.012 305.772 510.442 305.086 509.718 304.596C507.087 302.334 504.249 300.325 501.243 298.595C498.259 296.865 495.235 297.889 492.557 299.883Z" fill="#FBB3B2"/>
<path d="M475.275 172.99C472.265 173.35 470.075 175.703 470.38 178.259C470.685 180.815 473.37 182.578 476.38 182.212C479.391 181.846 481.581 179.5 481.275 176.95C480.97 174.401 478.285 172.631 475.275 172.99ZM476.299 181.507C473.75 181.812 471.478 180.314 471.214 178.157C470.949 176.001 472.814 174.007 475.356 173.702C477.899 173.397 480.177 174.896 480.442 177.052C480.706 179.208 478.841 181.202 476.299 181.507Z" fill="#545454"/>
<path d="M460.603 174.753C457.592 175.113 455.402 177.466 455.708 180.015C456.013 182.565 458.698 184.335 461.708 183.975C464.718 183.616 466.908 181.263 466.603 178.706C466.298 176.15 463.613 174.394 460.603 174.753ZM461.627 183.263C459.077 183.568 456.806 182.07 456.548 179.92C456.291 177.771 458.142 175.77 460.691 175.458C463.24 175.146 465.512 176.652 465.769 178.808C466.027 180.965 464.169 182.958 461.627 183.263Z" fill="#545454"/>
<path d="M449.707 176.062L456.25 177.459L455.606 179.181L449.436 177.371L449.707 176.062Z" fill="#545454"/>
<path d="M486.177 171.681L480.143 174.59L481.18 176.109L486.747 172.888L486.177 171.681Z" fill="#545454"/>
<path d="M466 177.025L470.59 176.476L470.353 177.615L466.413 177.879L466 177.025Z" fill="#545454"/>
<path d="M457.097 175.486C457.529 174.556 457.76 173.547 457.775 172.522C457.792 171.909 457.897 171.301 458.087 170.718C458.421 169.978 458.928 169.329 459.565 168.827C461.681 167.036 464.711 166.114 467.701 165.985C470.962 165.835 474.205 166.536 477.112 168.02C478 168.436 478.796 169.026 479.451 169.756C480.401 170.915 480.604 172.414 481.56 173.56C482.212 174.255 483.033 174.77 483.943 175.055C484.853 175.34 485.821 175.386 486.753 175.187C487.086 174.007 486.652 172.76 486.821 171.553C487.088 170.518 487.449 169.511 487.899 168.542C488.95 165.443 487.418 161.849 484.258 159.998C483.153 159.32 481.845 158.879 481.018 157.963C480.19 157.048 479.994 156.099 479.424 155.183C477.912 152.762 474 151.63 471.024 152.749C470.088 153.101 469.261 153.637 468.312 154.017C466.549 154.742 464.542 154.871 462.603 155.115C460.692 155.292 458.822 155.782 457.07 156.567C455.396 157.394 453.992 158.723 453.606 160.31C453.423 161.042 453.463 161.801 453.28 162.527C452.345 166.209 446.304 167.999 445.965 171.756C445.843 173.112 446.582 174.414 447.504 175.519C448.141 176.272 449.667 178.286 450.745 178.578C451.823 178.869 452.643 177.845 453.674 177.493C455.301 176.984 456.284 176.876 457.097 175.486Z" fill="#CBCEDA"/>
<path d="M533.583 414.319C533.583 448.387 554.954 475.959 581.363 475.959L533.583 414.319Z" fill="#46455B"/>
<path d="M581.363 475.965C581.363 441.511 605.215 413.634 634.688 413.634L581.363 475.965Z" fill="#EECF64"/>
<path d="M550.9 417.411C550.9 449.777 564.528 475.965 581.363 475.965L550.9 417.411Z" fill="#EECF64"/>
<path d="M581.363 475.965C581.363 431.943 608.93 396.316 642.993 396.316L581.363 475.965Z" fill="#46455B"/>
<path opacity="0.1" d="M579.295 487.737C585.855 487.737 591.173 486.838 591.173 485.73C591.173 484.621 585.855 483.723 579.295 483.723C572.734 483.723 567.416 484.621 567.416 485.73C567.416 486.838 572.734 487.737 579.295 487.737Z" fill="#EECF64"/>
<path d="M571.314 476.399C571.314 476.399 578.095 476.189 580.129 474.738C582.163 473.287 590.549 471.544 591.058 473.877C591.566 476.209 601.228 485.479 593.587 485.54C585.946 485.601 575.81 484.347 573.776 483.106C571.742 481.865 571.314 476.399 571.314 476.399Z" fill="#A8A8A8"/>
<path opacity="0.2" d="M593.729 484.726C586.081 484.787 575.959 483.533 573.918 482.292C572.365 481.349 571.748 477.952 571.538 476.393H571.314C571.314 476.393 571.742 481.858 573.782 483.099C575.823 484.34 585.946 485.594 593.594 485.533C595.804 485.533 596.563 484.726 596.523 483.567C596.218 484.272 595.411 484.713 593.729 484.726Z" fill="#545454"/>
<path opacity="0.1" d="M51.6098 492.64C56.8297 492.64 61.0612 491.923 61.0612 491.04C61.0612 490.156 56.8297 489.439 51.6098 489.439C46.39 489.439 42.1584 490.156 42.1584 491.04C42.1584 491.923 46.39 492.64 51.6098 492.64Z" fill="#EECF64"/>
<path opacity="0.2" d="M63.0952 490.266C56.9932 490.314 48.952 489.317 47.3316 488.327C46.0976 487.581 45.6095 484.876 45.4399 483.635H45.2637C45.2637 483.635 45.6027 487.981 47.2231 488.971C48.8435 489.961 56.905 490.951 62.9867 490.904C64.7428 490.904 65.353 490.266 65.3191 489.337C65.075 489.88 64.4038 490.226 63.0952 490.266Z" fill="#545454"/>
</svg>
